<svg xmlns="http://www.w3.org/2000/svg" viewBox="0 0 512 512" width="100%" height="100%">
  <defs>
    <linearGradient id="bgGrad" x1="0%" y1="0%" x2="100%" y2="100%">
      <stop offset="0%" stop-color="#3b82f6" />
      <stop offset="50%" stop-color="#6366f1" />
      <stop offset="100%" stop-color="#8b5cf6" />
    </linearGradient>
    <linearGradient id="toolGrad" x1="0%" y1="0%" x2="100%" y2="100%">
      <stop offset="0%" stop-color="#ffffff" />
      <stop offset="100%" stop-color="#e2e8f0" />
    </linearGradient>
    <filter id="shadow" x="-20%" y="-20%" width="140%" height="140%">
      <feDropShadow dx="0" dy="8" stdDeviation="12" flood-color="#000000" flood-opacity="0.35" />
    </filter>
  </defs>

  <!-- Background Rounded Base -->
  <rect width="512" height="512" rx="128" fill="url(#bgGrad)" />

  <!-- Inner Dark Glass Effect -->
  <rect x="24" y="24" width="464" height="464" rx="104" fill="#090d16" fill-opacity="0.25" stroke="#ffffff" stroke-opacity="0.15" stroke-width="4" />

  <!-- Centered Wrench & Bracket Icon Symbol -->
  <g filter="url(#shadow)" transform="translate(106, 106) scale(0.585)">
    <!-- Wrench Shape -->
    <path
      d="M482.4 125.6c-18.7-18.7-49.1-18.7-67.9 0l-53.7 53.7-45.3-45.3c9.9-24.8 4.7-54.3-15.6-74.6-25-25-65.5-25-90.5 0-14.8 14.8-20.9 35.6-18.4 55.4l43.2 43.2-31.2 31.2-43.2-43.2c-19.8-2.5-40.6 3.6-55.4 18.4-25 25-25 65.5 0 90.5 20.3 20.3 49.8 25.5 74.6 15.6l45.3 45.3-53.7 53.7c-18.7 18.7-18.7 49.1 0 67.9 18.7 18.7 49.1 18.7 67.9 0l228.4-228.4c18.7-18.7 18.7-49.2 0-67.8z"
      fill="url(#toolGrad)"
      fill-opacity="0.95"
    />
    <!-- Code Bracket Accents -->
    <path
      d="M120 180 L50 256 L120 332"
      stroke="#ffffff"
      stroke-width="36"
      stroke-linecap="round"
      stroke-linejoin="round"
      fill="none"
    />
    <path
      d="M392 180 L462 256 L392 332"
      stroke="#ffffff"
      stroke-width="36"
      stroke-linecap="round"
      stroke-linejoin="round"
      fill="none"
    />
  </g>
</svg>
